# Blender 5.0.1
# www.blender.org
mtllib Untitled.mtl
o Cube
v 15.957504 0.188011 -14.666229
v 15.957504 -0.188011 -14.666229
v 15.957504 0.188011 14.597248
v 15.957504 -0.188011 14.597248
v -15.957504 0.188011 -14.666229
v -15.957504 -0.188011 -14.666229
v -15.957504 0.188011 14.597248
v -15.957504 -0.188011 14.597248
vn -0.0000 1.0000 -0.0000
vn -0.0000 -0.0000 1.0000
vn -1.0000 -0.0000 -0.0000
vn -0.0000 -1.0000 -0.0000
vn 1.0000 -0.0000 -0.0000
vn -0.0000 -0.0000 -1.0000
vt 0.625000 0.500000
vt 0.875000 0.500000
vt 0.875000 0.750000
vt 0.625000 0.750000
vt 0.375000 0.750000
vt 0.625000 1.000000
vt 0.375000 1.000000
vt 0.375000 0.000000
vt 0.625000 0.000000
vt 0.625000 0.250000
vt 0.375000 0.250000
vt 0.125000 0.500000
vt 0.375000 0.500000
vt 0.125000 0.750000
s 0
usemtl Material
f 1/1/1 5/2/1 7/3/1 3/4/1
f 4/5/2 3/4/2 7/6/2 8/7/2
f 8/8/3 7/9/3 5/10/3 6/11/3
f 6/12/4 2/13/4 4/5/4 8/14/4
f 2/13/5 1/1/5 3/4/5 4/5/5
f 6/11/6 5/10/6 1/1/6 2/13/6
o Cube.001
v -18.273079 -0.882743 5.280743
v -18.273079 6.517996 5.280743
v -18.273079 -0.882743 -5.992059
v -18.273079 6.517996 -5.992059
v -8.325515 -0.882743 5.280743
v -8.325515 6.517996 5.280743
v -8.325515 -0.882743 -5.992059
v -8.325515 6.517996 -5.992059
vn -1.0000 -0.0000 -0.0000
vn -0.0000 -0.0000 -1.0000
vn 1.0000 -0.0000 -0.0000
vn -0.0000 -0.0000 1.0000
vn -0.0000 -1.0000 -0.0000
vn -0.0000 1.0000 -0.0000
vt 0.375000 0.000000
vt 0.625000 0.000000
vt 0.625000 0.250000
vt 0.375000 0.250000
vt 0.625000 0.500000
vt 0.375000 0.500000
vt 0.625000 0.750000
vt 0.375000 0.750000
vt 0.625000 1.000000
vt 0.375000 1.000000
vt 0.125000 0.500000
vt 0.125000 0.750000
vt 0.875000 0.500000
vt 0.875000 0.750000
s 0
f 9/15/7 10/16/7 12/17/7 11/18/7
f 11/18/8 12/17/8 16/19/8 15/20/8
f 15/20/9 16/19/9 14/21/9 13/22/9
f 13/22/10 14/21/10 10/23/10 9/24/10
f 11/25/11 15/20/11 13/22/11 9/26/11
f 16/19/12 12/27/12 10/28/12 14/21/12
o Cone
v -13.810039 5.814885 -5.490468
v -12.738901 5.814885 -5.384970
v -11.708927 5.814885 -5.072531
v -10.759698 5.814885 -4.565157
v -9.927691 5.814885 -3.882347
v -9.244881 5.814885 -3.050341
v -8.737508 5.814885 -2.101111
v -8.425068 5.814885 -1.071137
v -8.319571 5.814885 0.000000
v -8.425068 5.814885 1.071137
v -8.737508 5.814885 2.101111
v -9.244881 5.814885 3.050341
v -9.927691 5.814885 3.882347
v -10.759698 5.814885 4.565157
v -11.708927 5.814885 5.072531
v -12.738901 5.814885 5.384970
v -13.810039 5.814885 5.490468
v -14.881176 5.814885 5.384970
v -15.911150 5.814885 5.072531
v -16.860378 5.814885 4.565157
v -17.692387 5.814885 3.882347
v -18.375196 5.814885 3.050341
v -18.882568 5.814885 2.101111
v -19.195009 5.814885 1.071137
v -19.300507 5.814885 0.000000
v -19.195009 5.814885 -1.071137
v -18.882568 5.814885 -2.101111
v -18.375196 5.814885 -3.050341
v -17.692387 5.814885 -3.882347
v -16.860378 5.814885 -4.565157
v -15.911150 5.814885 -5.072531
v -14.881176 5.814885 -5.384970
v -13.810039 16.795822 0.000000
vn 0.0878 0.4455 -0.8910
vn 0.2599 0.4455 -0.8567
vn 0.4220 0.4455 -0.7896
vn 0.5680 0.4455 -0.6921
vn 0.6921 0.4455 -0.5680
vn 0.7896 0.4455 -0.4220
vn 0.8567 0.4455 -0.2599
vn 0.8910 0.4455 -0.0878
vn 0.8910 0.4455 0.0878
vn 0.8567 0.4455 0.2599
vn 0.7896 0.4455 0.4220
vn 0.6921 0.4455 0.5680
vn 0.5680 0.4455 0.6921
vn 0.4220 0.4455 0.7896
vn 0.2599 0.4455 0.8567
vn 0.0878 0.4455 0.8910
vn -0.0878 0.4455 0.8910
vn -0.2599 0.4455 0.8567
vn -0.4220 0.4455 0.7896
vn -0.5680 0.4455 0.6921
vn -0.6921 0.4455 0.5680
vn -0.7896 0.4455 0.4220
vn -0.8567 0.4455 0.2599
vn -0.8910 0.4455 0.0878
vn -0.8910 0.4455 -0.0878
vn -0.8567 0.4455 -0.2599
vn -0.7896 0.4455 -0.4220
vn -0.6921 0.4455 -0.5680
vn -0.5680 0.4455 -0.6921
vn -0.4220 0.4455 -0.7896
vn -0.0000 -1.0000 -0.0000
vn -0.2599 0.4455 -0.8567
vn -0.0878 0.4455 -0.8910
vt 0.250000 0.490000
vt 0.250000 0.250000
vt 0.296822 0.485388
vt 0.341844 0.471731
vt 0.383337 0.449553
vt 0.419706 0.419706
vt 0.449553 0.383337
vt 0.471731 0.341844
vt 0.485388 0.296822
vt 0.490000 0.250000
vt 0.485388 0.203178
vt 0.471731 0.158156
vt 0.449553 0.116663
vt 0.419706 0.080294
vt 0.383337 0.050447
vt 0.341844 0.028269
vt 0.296822 0.014612
vt 0.250000 0.010000
vt 0.203178 0.014612
vt 0.158156 0.028269
vt 0.116663 0.050447
vt 0.080294 0.080294
vt 0.050447 0.116663
vt 0.028269 0.158156
vt 0.014612 0.203178
vt 0.010000 0.250000
vt 0.014612 0.296822
vt 0.028269 0.341844
vt 0.050447 0.383337
vt 0.080294 0.419706
vt 0.116663 0.449553
vt 0.158156 0.471731
vt 0.750000 0.490000
vt 0.796822 0.485388
vt 0.841844 0.471731
vt 0.883337 0.449553
vt 0.919706 0.419706
vt 0.949553 0.383337
vt 0.971731 0.341844
vt 0.985388 0.296822
vt 0.990000 0.250000
vt 0.985388 0.203178
vt 0.971731 0.158156
vt 0.949553 0.116663
vt 0.919706 0.080294
vt 0.883337 0.050447
vt 0.841844 0.028269
vt 0.796822 0.014612
vt 0.750000 0.010000
vt 0.703178 0.014612
vt 0.658156 0.028269
vt 0.616663 0.050447
vt 0.580294 0.080294
vt 0.550447 0.116663
vt 0.528269 0.158156
vt 0.514612 0.203178
vt 0.510000 0.250000
vt 0.514612 0.296822
vt 0.528269 0.341844
vt 0.550447 0.383337
vt 0.580294 0.419706
vt 0.616663 0.449553
vt 0.658156 0.471731
vt 0.703178 0.485388
vt 0.203178 0.485388
s 0
f 17/29/13 49/30/13 18/31/13
f 18/31/14 49/30/14 19/32/14
f 19/32/15 49/30/15 20/33/15
f 20/33/16 49/30/16 21/34/16
f 21/34/17 49/30/17 22/35/17
f 22/35/18 49/30/18 23/36/18
f 23/36/19 49/30/19 24/37/19
f 24/37/20 49/30/20 25/38/20
f 25/38/21 49/30/21 26/39/21
f 26/39/22 49/30/22 27/40/22
f 27/40/23 49/30/23 28/41/23
f 28/41/24 49/30/24 29/42/24
f 29/42/25 49/30/25 30/43/25
f 30/43/26 49/30/26 31/44/26
f 31/44/27 49/30/27 32/45/27
f 32/45/28 49/30/28 33/46/28
f 33/46/29 49/30/29 34/47/29
f 34/47/30 49/30/30 35/48/30
f 35/48/31 49/30/31 36/49/31
f 36/49/32 49/30/32 37/50/32
f 37/50/33 49/30/33 38/51/33
f 38/51/34 49/30/34 39/52/34
f 39/52/35 49/30/35 40/53/35
f 40/53/36 49/30/36 41/54/36
f 41/54/37 49/30/37 42/55/37
f 42/55/38 49/30/38 43/56/38
f 43/56/39 49/30/39 44/57/39
f 44/57/40 49/30/40 45/58/40
f 45/58/41 49/30/41 46/59/41
f 46/59/42 49/30/42 47/60/42
f 17/61/43 18/62/43 19/63/43 20/64/43 21/65/43 22/66/43 23/67/43 24/68/43 25/69/43 26/70/43 27/71/43 28/72/43 29/73/43 30/74/43 31/75/43 32/76/43 33/77/43 34/78/43 35/79/43 36/80/43 37/81/43 38/82/43 39/83/43 40/84/43 41/85/43 42/86/43 43/87/43 44/88/43 45/89/43 46/90/43 47/91/43 48/92/43
f 47/60/44 49/30/44 48/93/44
f 48/93/45 49/30/45 17/29/45
